<svg width="30" height="25" viewBox="0 0 30 25" fill="none" xmlns="http://www.w3.org/2000/svg">
<g clip-path="url(#clip0_19_158)">
<path d="M29.1169 3.05281C27.2986 2.29016 25.4789 2 23.6602 2C17.8866 1.99953 12.1134 4.92219 6.33984 4.92219C4.89188 4.92219 3.44484 4.73844 1.99687 4.27906C1.83422 4.2275 1.67109 4.20312 1.51172 4.20312C0.705 4.20312 0 4.8275 0 5.69422V20.5658C0 21.1578 0.338906 21.7189 0.883125 21.9467C2.70141 22.7098 4.52109 23 6.33984 23C12.1134 23 17.887 20.0773 23.6606 20.0773C25.1086 20.0773 26.5556 20.2611 28.0036 20.7205C28.1662 20.772 28.3294 20.7964 28.4888 20.7964C29.2955 20.7964 30.0005 20.172 30.0005 19.3053V4.43422C30 3.84172 29.6611 3.28109 29.1169 3.05281V3.05281ZM2.25 6.69781C3.19313 6.93406 4.1775 7.05266 5.19 7.11641C4.91438 8.49406 3.70312 9.53234 2.25 9.53234V6.69781ZM2.25 20.0572V17.8175C3.86109 17.8175 5.16469 19.0958 5.23641 20.6956C4.18031 20.6108 3.19313 20.3998 2.25 20.0572V20.0572ZM15 17C12.9286 17 11.25 14.9848 11.25 12.5C11.25 10.0147 12.9291 8 15 8C17.0709 8 18.75 10.0147 18.75 12.5C18.75 14.9858 17.0705 17 15 17ZM27.75 18.3022C26.9287 18.0964 26.0761 17.9811 25.2037 17.9066C25.4789 16.6841 26.4928 15.7559 27.75 15.5966V18.3022ZM27.75 7.23453C26.302 7.05125 25.1784 5.84234 25.1339 4.34938C26.0498 4.45109 26.9194 4.64141 27.75 4.94281V7.23453Z" fill="#F4F4F4"/>
</g>
<defs>
<clipPath id="clip0_19_158">
<rect width="30" height="24" fill="white" transform="translate(0 0.5)"/>
</clipPath>
</defs>
</svg>
