<svg width="70" height="70" viewBox="0 0 70 70" fill="none" xmlns="http://www.w3.org/2000/svg">
<g clip-path="url(#clip0_7_137)">
<path d="M17.5 34.9996C14.0388 34.9996 10.6554 36.0259 7.7775 37.9489C4.89964 39.8718 2.65662 42.6049 1.33209 45.8026C0.0075519 49.0003 -0.339006 52.519 0.336235 55.9136C1.01148 59.3083 2.67819 62.4265 5.12561 64.8739C7.57303 67.3213 10.6912 68.988 14.0859 69.6633C17.4806 70.3385 20.9992 69.992 24.1969 68.6674C27.3946 67.3429 30.1278 65.0999 32.0507 62.222C33.9736 59.3442 35 55.9607 35 52.4996C35 47.8583 33.1562 43.4071 29.8743 40.1252C26.5925 36.8433 22.1413 34.9996 17.5 34.9996V34.9996ZM69.3164 27.4992L54.697 2.50023C54.2464 1.73841 53.6051 1.10715 52.8363 0.668637C52.0674 0.230129 51.1976 -0.000488281 50.3125 -0.000488281C49.4274 -0.000488281 48.5575 0.230129 47.7887 0.668637C47.0198 1.10715 46.3785 1.73841 45.9279 2.50023L31.3086 27.4992C29.3617 30.8324 31.798 34.9996 35.6959 34.9996H64.9291C68.8269 34.9996 71.2633 30.8324 69.3164 27.4992ZM65.625 39.3746H43.75C42.5897 39.3746 41.4769 39.8355 40.6564 40.656C39.8359 41.4765 39.375 42.5893 39.375 43.7496V65.6245C39.375 66.7849 39.8359 67.8977 40.6564 68.7181C41.4769 69.5386 42.5897 69.9995 43.75 69.9995H65.625C66.7853 69.9995 67.8981 69.5386 68.7186 68.7181C69.539 67.8977 70 66.7849 70 65.6245V43.7496C70 42.5893 69.539 41.4765 68.7186 40.656C67.8981 39.8355 66.7853 39.3746 65.625 39.3746Z" fill="#FF8A00"/>
</g>
<defs>
<clipPath id="clip0_7_137">
<rect width="70" height="70" fill="white"/>
</clipPath>
</defs>
</svg>
