<svg width="30" height="31" viewBox="0 0 30 31" fill="none" xmlns="http://www.w3.org/2000/svg">
<path d="M25.6178 11.1178V4.88217H19.3954L14.9735 0.5L10.6178 4.88217H4.38217V11.1178L0 15.4735L4.38217 19.8954V26.1178H10.6178L14.9735 30.5L19.3954 26.1178H25.6178V19.8954L30 15.4735L25.6178 11.1178V11.1178ZM10.7767 8.92012C12.0741 8.92012 13.12 9.96602 13.12 11.2767C13.12 11.8982 12.8731 12.4942 12.4337 12.9337C11.9942 13.3731 11.3982 13.62 10.7767 13.62C9.46602 13.62 8.42012 12.5741 8.42012 11.2767C8.42012 9.96602 9.46602 8.92012 10.7767 8.92012ZM19.2365 22.0931C17.9391 22.0931 16.8932 21.034 16.8932 19.7365C16.8932 19.115 17.1401 18.519 17.5796 18.0796C18.019 17.6401 18.615 17.3932 19.2365 17.3932C20.534 17.3932 21.5931 18.4391 21.5931 19.7365C21.5931 20.3615 21.3448 20.9609 20.9029 21.4029C20.4609 21.8448 19.8615 22.0931 19.2365 22.0931ZM10.3398 22.1328L8.35393 20.147L19.647 8.85393L21.6328 10.8398L10.3398 22.1328V22.1328Z" fill="#F4F4F4"/>
</svg>
