<svg width="30" height="31" viewBox="0 0 30 31" fill="none" xmlns="http://www.w3.org/2000/svg">
<path fill-rule="evenodd" clip-rule="evenodd" d="M15 30.5C18.9782 30.5 22.7936 28.9196 25.6066 26.1066C28.4196 23.2936 30 19.4782 30 15.5C30 11.5218 28.4196 7.70644 25.6066 4.8934C22.7936 2.08035 18.9782 0.5 15 0.5C11.0218 0.5 7.20644 2.08035 4.3934 4.8934C1.58035 7.70644 0 11.5218 0 15.5C0 19.4782 1.58035 23.2936 4.3934 26.1066C7.20644 28.9196 11.0218 30.5 15 30.5V30.5ZM16.875 6.125C16.875 5.62772 16.6775 5.15081 16.3258 4.79918C15.9742 4.44754 15.4973 4.25 15 4.25C14.5027 4.25 14.0258 4.44754 13.6742 4.79918C13.3225 5.15081 13.125 5.62772 13.125 6.125V6.2975C12.005 6.49687 10.9364 6.91896 9.9825 7.53875C8.62875 8.43875 7.5 9.89188 7.5 11.75C7.5 13.6063 8.62875 15.0594 9.9825 15.9613C10.8825 16.5613 11.9588 16.9831 13.125 17.2025V20.8419C12.3919 20.6037 11.85 20.2475 11.5444 19.8969C11.3858 19.7022 11.1897 19.5414 10.9677 19.424C10.7458 19.3066 10.5025 19.2349 10.2523 19.2133C10.0022 19.1917 9.75022 19.2205 9.51142 19.2981C9.27262 19.3757 9.05183 19.5005 8.86217 19.665C8.6725 19.8296 8.51782 20.0306 8.4073 20.256C8.29677 20.4815 8.23266 20.7268 8.21875 20.9775C8.20485 21.2283 8.24145 21.4792 8.32637 21.7155C8.4113 21.9518 8.54281 22.1686 8.71312 22.3531C9.76687 23.57 11.3625 24.3706 13.125 24.7025V24.875C13.125 25.3723 13.3225 25.8492 13.6742 26.2008C14.0258 26.5525 14.5027 26.75 15 26.75C15.4973 26.75 15.9742 26.5525 16.3258 26.2008C16.6775 25.8492 16.875 25.3723 16.875 24.875V24.7025C17.995 24.5031 19.0636 24.081 20.0175 23.4613C21.3712 22.5613 22.5 21.1081 22.5 19.25C22.5 17.3937 21.3712 15.9406 20.0175 15.0387C19.0636 14.419 17.995 13.9969 16.875 13.7975V10.1581C17.6081 10.3963 18.15 10.7525 18.4556 11.1031C18.6157 11.2931 18.812 11.4493 19.033 11.5628C19.254 11.6763 19.4953 11.7447 19.743 11.7641C19.9907 11.7834 20.2398 11.7534 20.4757 11.6757C20.7117 11.598 20.9299 11.4742 21.1176 11.3115C21.3053 11.1487 21.4588 10.9503 21.5691 10.7277C21.6795 10.5052 21.7445 10.2629 21.7605 10.015C21.7764 9.76706 21.7429 9.51844 21.6619 9.28358C21.5809 9.04872 21.4541 8.83229 21.2888 8.64687C20.2331 7.43 18.6394 6.62938 16.875 6.2975V6.125Z" fill="#F4F4F4"/>
</svg>
